<svg xmlns="http://www.w3.org/2000/svg" xmlns:xlink="http://www.w3.org/1999/xlink" version="1.1" data-diagram-type="DESCRIPTION" style="width:596px;height:556px;background:#FFFFFF;" width="596px" height="556px" viewBox="0 0 596 556" zoomAndPan="magnify" preserveAspectRatio="none" contentStyleType="text/css"><?plantuml 1.2026.8?><defs/><g font-family="sans-serif" lengthAdjust="spacing"><g class="title" data-source-line="1"><text x="212.695" y="24.533" fill="#000" font-size="14" textLength="164.603" font-weight="700">C4 Level 2 — Containers</text></g><!--entity web--><g class="entity" data-qualified-name="web" id="ent0001" data-source-line="5"><ellipse cx="543.246" cy="187.109" rx="8" ry="8" fill="#F1F1F1" style="stroke:#181818;stroke-width:0.5;"/><path d="M543.246,195.109 L543.246,222.109 M530.246,203.109 L556.246,203.109 M543.246,222.109 L530.246,237.109 M543.246,222.109 L556.246,237.109" style="stroke:#181818;stroke-width:0.5;" fill="none"/><text x="504.5" y="253.143" fill="#000" font-size="14" textLength="77.492">Web-клиент</text></g><!--entity api--><g class="entity" data-qualified-name="api" id="ent0002" data-source-line="6"><rect x="251.5" y="334.609" width="98.579" height="55.219" fill="#F1F1F1" style="stroke:#181818;stroke-width:0.5;" rx="2.5" ry="2.5"/><text x="261.5" y="359.143" fill="#000" font-size="14" textLength="78.579">Platform API</text><text x="261.5" y="376.752" fill="#000" font-size="14" textLength="63.793">Go, REST</text></g><!--entity worker--><g class="entity" data-qualified-name="worker" id="ent0003" data-source-line="7"><rect x="32.5" y="45.609" width="174.54" height="55.219" fill="#F1F1F1" style="stroke:#181818;stroke-width:0.5;" rx="2.5" ry="2.5"/><text x="42.5" y="70.143" fill="#000" font-size="14" textLength="91.034">Outbox worker</text><text x="42.5" y="87.752" fill="#000" font-size="14" textLength="154.54">в процессе Platform API</text></g><!--entity db--><g class="entity" data-qualified-name="db" id="ent0004" data-source-line="8"><path d="M6,477.609 C6,467.609 120.241,467.609 120.241,467.609 C120.241,467.609 234.482,467.609 234.482,477.609 L234.482,521.828 C234.482,531.828 120.241,531.828 120.241,531.828 C120.241,531.828 6,531.828 6,521.828 L6,477.609" style="stroke:#181818;stroke-width:0.5;" fill="#F1F1F1"/><path d="M6,477.609 C6,487.609 120.241,487.609 120.241,487.609 C120.241,487.609 234.482,487.609 234.482,477.609" style="stroke:#181818;stroke-width:0.5;" fill="none"/><text x="16" y="506.143" fill="#000" font-size="14" textLength="76.262">PostgreSQL</text><text x="16" y="523.752" fill="#000" font-size="14" textLength="208.482">каталог, остатки, заказы, outbox</text></g><!--entity restaurant--><g class="entity" data-qualified-name="restaurant" id="ent0005" data-source-line="9"><rect x="152" y="190.109" width="129.717" height="55.219" fill="#F1F1F1" style="stroke:#181818;stroke-width:0.5;" rx="2.5" ry="2.5"/><text x="162" y="214.643" fill="#000" font-size="14" textLength="109.717">Demo Restaurant</text><text x="162" y="232.252" fill="#000" font-size="14" textLength="63.793">Go, REST</text></g><!--link web to api--><g class="link" data-entity-1="ent0001" data-entity-2="ent0002" id="lnk6" data-source-line="11" data-link-type="dependency"><path d="M520.19,256.759 C508.52,273.479 492.97,292.109 475,304.609 C437.59,330.639 392.331,344.202 355.491,352.012" style="stroke:#181818;stroke-width:1;" fill="none" id="web-to-api"/><polygon points="350.6,353.049,360.234,355.096,355.491,352.012,358.575,347.27,350.6,353.049" fill="#181818" style="stroke:#181818;stroke-width:1;stroke-linejoin:miter;stroke-miterlimit:10;"/><text x="496" y="301.104" fill="#000" font-size="13" textLength="80.914">Customer API</text></g><!--link restaurant to api--><g class="link" data-entity-1="ent0005" data-entity-2="ent0002" id="lnk7" data-source-line="12" data-link-type="dependency"><path d="M209.33,245.419 C205.78,263.259 204.23,286.619 214,304.609 C222.25,319.799 232.257,328.986 246.897,337.726" style="stroke:#181818;stroke-width:1;" fill="none" id="restaurant-to-api"/><polygon points="251.19,340.289,245.513,332.241,246.897,337.726,241.412,339.111,251.19,340.289" fill="#181818" style="stroke:#181818;stroke-width:1;stroke-linejoin:miter;stroke-miterlimit:10;"/><text x="215" y="301.104" fill="#000" font-size="13" textLength="126.807">Partner API + API key</text></g><!--link restaurant to api--><g class="link" data-entity-1="ent0005" data-entity-2="ent0002" id="lnk11" data-source-line="16" data-link-type="dependency"><path d="M282.33,237.039 C306.71,247.439 331.88,263.199 346,286.609 C355.6,302.519 348.964,316.649 335.964,330.869" style="stroke:#181818;stroke-width:1;" fill="none" id="restaurant-to-api-1"/><polygon points="332.59,334.559,341.615,330.616,335.964,330.869,335.71,325.218,332.59,334.559" fill="#181818" style="stroke:#181818;stroke-width:1;stroke-linejoin:miter;stroke-miterlimit:10;"/><text x="350" y="301.104" fill="#000" font-size="13" textLength="116.314">PATCH order status</text></g><!--link api to db--><g class="link" data-entity-1="ent0002" data-entity-2="ent0004" id="lnk8" data-source-line="13" data-link-type="dependency"><path d="M265.24,389.879 C235.47,412.169 197.033,440.943 165.713,464.383" style="stroke:#181818;stroke-width:1;" fill="none" id="api-to-db"/><polygon points="161.71,467.379,171.312,465.189,165.713,464.383,166.519,458.784,161.71,467.379" fill="#181818" style="stroke:#181818;stroke-width:1;stroke-linejoin:miter;stroke-miterlimit:10;"/><text x="223" y="434.104" fill="#000" font-size="13" textLength="57.808">pgx / SQL</text></g><!--link worker to db--><g class="link" data-entity-1="ent0003" data-entity-2="ent0004" id="lnk9" data-source-line="14" data-link-type="dependency"><path d="M118.83,100.729 C117.07,143.639 114.05,230.769 115,304.609 C115.74,362.049 117.548,424.032 118.788,462.372" style="stroke:#181818;stroke-width:1;" fill="none" id="worker-to-db"/><polygon points="118.95,467.369,122.657,458.245,118.788,462.372,114.661,458.503,118.95,467.369" fill="#181818" style="stroke:#181818;stroke-width:1;stroke-linejoin:miter;stroke-miterlimit:10;"/><text x="116" y="301.104" fill="#000" font-size="13" textLength="84.938">Читает outbox</text></g><!--link worker to restaurant--><g class="link" data-entity-1="ent0003" data-entity-2="ent0005" id="lnk10" data-source-line="15" data-link-type="dependency"><path d="M138.24,100.909 C155.59,126.389 178.706,160.356 196.026,185.796" style="stroke:#181818;stroke-width:1;" fill="none" id="worker-to-restaurant"/><polygon points="198.84,189.929,197.081,180.239,196.026,185.796,190.469,184.741,198.84,189.929" fill="#181818" style="stroke:#181818;stroke-width:1;stroke-linejoin:miter;stroke-miterlimit:10;"/><text x="170" y="145.104" fill="#000" font-size="13" textLength="69.354">POST order</text></g><?plantuml-src RP31Ji9054NtynKlR8MO65SkJ4WrQa82KX8tRARqWGtjJ3Cp5TW12pTk_GUtHDD0CE8llFw2N-AqDL2DYvdavPwvzzqnWGaHd5DeuGE6S09VysTmf30y4AWqq-D0n5pn20OoYgL0OLmpiqyK3WmNen0hYBxdlfm4OWH37cfaZ0-CL52xGwz1Mtgd3QNqaIrhm3LCq6DxJwXrGcw6KaNGxDpqnPMiG_VIxHKaZuCgsKwC9wSmaMgCgY_e5UWpczCkUwGqMsGBIg5gLeOLCFEvuHxNQEEaDYE5xctBEcnfbIrfPHVSqLiThDKYd-tPqiREQwjPXjRPKnra4L-u-hyQN60aeOlQy4HnOVwKK7k1CLiT6etpl1YSWPDe8oDK-RBiW5M83bT6b00S5VSOPopNSiRtB1AFfd0CjWuhgnuKUg5DqIxDbZ_BLvbAe0rgkpsGohTVzVyYpPvpNG9WPPFeRm00?></g></svg>