<svg xmlns="http://www.w3.org/2000/svg" xmlns:xlink="http://www.w3.org/1999/xlink" version="1.1" data-diagram-type="DESCRIPTION" style="width:656px;height:543px;background:#FFFFFF;" width="656px" height="543px" viewBox="0 0 656 543" zoomAndPan="magnify" preserveAspectRatio="none" contentStyleType="text/css"><?plantuml 1.2026.8?><defs/><g font-family="sans-serif" lengthAdjust="spacing"><g class="title" data-source-line="1"><text x="229.477" y="22.995" fill="#000" font-size="14" textLength="190.586" font-weight="700">C4 Level 2 — Containers</text></g><!--entity web--><g class="entity" data-qualified-name="web" id="ent0001" data-source-line="5"><ellipse cx="597.13" cy="182.397" rx="8" ry="8" fill="#F1F1F1" style="stroke:#181818;stroke-width:0.5;"/><path d="M597.13,190.397 L597.13,217.397 M584.13,198.397 L610.13,198.397 M597.13,217.397 L584.13,232.397 M597.13,217.397 L610.13,232.397" style="stroke:#181818;stroke-width:0.5;" fill="none"/><text x="552.72" y="246.892" fill="#000" font-size="14" textLength="88.819">Web-клиент</text></g><!--entity api--><g class="entity" data-qualified-name="api" id="ent0002" data-source-line="6"><rect x="288.53" y="327.187" width="99.215" height="52.594" fill="#F1F1F1" style="stroke:#181818;stroke-width:0.5;" rx="2.5" ry="2.5"/><text x="298.53" y="350.182" fill="#000" font-size="14" textLength="79.215">Kitchen API</text><text x="298.53" y="366.479" fill="#000" font-size="14" textLength="64.326">Go, REST</text></g><!--entity worker--><g class="entity" data-qualified-name="worker" id="ent0003" data-source-line="7"><rect x="45.57" y="44.297" width="185.122" height="52.594" fill="#F1F1F1" style="stroke:#181818;stroke-width:0.5;" rx="2.5" ry="2.5"/><text x="55.57" y="67.292" fill="#000" font-size="14" textLength="103.817">Outbox worker</text><text x="55.57" y="83.589" fill="#000" font-size="14" textLength="165.122">в процессе Kitchen API</text></g><!--entity db--><g class="entity" data-qualified-name="db" id="ent0004" data-source-line="8"><path d="M6,466.787 C6,456.787 138.134,456.787 138.134,456.787 C138.134,456.787 270.269,456.787 270.269,466.787 L270.269,508.381 C270.269,518.381 138.134,518.381 138.134,518.381 C138.134,518.381 6,518.381 6,508.381 L6,466.787" style="stroke:#181818;stroke-width:0.5;" fill="#F1F1F1"/><path d="M6,466.787 C6,476.787 138.134,476.787 138.134,476.787 C138.134,476.787 270.269,476.787 270.269,466.787" style="stroke:#181818;stroke-width:0.5;" fill="none"/><text x="16" y="493.782" fill="#000" font-size="14" textLength="80.753">PostgreSQL</text><text x="16" y="510.079" fill="#000" font-size="14" textLength="244.269">каталог, остатки, заказы, outbox</text></g><!--entity restaurant--><g class="entity" data-qualified-name="restaurant" id="ent0005" data-source-line="9"><rect x="176.47" y="185.747" width="143.32" height="52.594" fill="#F1F1F1" style="stroke:#181818;stroke-width:0.5;" rx="2.5" ry="2.5"/><text x="186.47" y="208.742" fill="#000" font-size="14" textLength="123.32">Demo Restaurant</text><text x="186.47" y="225.039" fill="#000" font-size="14" textLength="64.326">Go, REST</text></g><!--link web to api--><g class="link" data-entity-1="ent0001" data-entity-2="ent0002" id="lnk6" data-source-line="11" data-link-type="dependency"><path d="M574.8,250.637 C563.32,267.057 547.99,285.257 530.13,297.187 C487.17,325.917 434.114,339.13 393.134,345.83" style="stroke:#181818;stroke-width:1;" fill="none" id="web-to-api"/><polygon points="388.2,346.637,397.727,349.132,393.134,345.83,396.437,341.237,388.2,346.637" fill="#181818" style="stroke:#181818;stroke-width:1;stroke-linejoin:miter;stroke-miterlimit:10;"/><text x="551.29" y="293.254" fill="#000" font-size="13" textLength="87.845">Customer API</text></g><!--link restaurant to api--><g class="link" data-entity-1="ent0005" data-entity-2="ent0002" id="lnk7" data-source-line="12" data-link-type="dependency"><path d="M240.53,238.637 C236.84,256.237 235.09,279.527 245.13,297.187 C254.7,314.007 267.17,323.966 283.99,332.586" style="stroke:#181818;stroke-width:1;" fill="none" id="restaurant-to-api"/><polygon points="288.44,334.867,282.255,327.202,283.99,332.586,278.606,334.322,288.44,334.867" fill="#181818" style="stroke:#181818;stroke-width:1;stroke-linejoin:miter;stroke-miterlimit:10;"/><text x="246.13" y="293.254" fill="#000" font-size="13" textLength="139.604">Partner API + API key</text></g><!--link restaurant to api--><g class="link" data-entity-1="ent0005" data-entity-2="ent0002" id="lnk11" data-source-line="16" data-link-type="dependency"><path d="M320.21,229.607 C346.9,239.617 374.45,255.427 390.13,280.187 C400.23,296.127 392.551,309.881 377.921,323.491" style="stroke:#181818;stroke-width:1;" fill="none" id="restaurant-to-api-1"/><polygon points="374.26,326.897,383.574,323.695,377.921,323.491,378.125,317.838,374.26,326.897" fill="#181818" style="stroke:#181818;stroke-width:1;stroke-linejoin:miter;stroke-miterlimit:10;"/><text x="394.97" y="293.254" fill="#000" font-size="13" textLength="126.629">PATCH order status</text></g><!--link api to db--><g class="link" data-entity-1="ent0002" data-entity-2="ent0004" id="lnk8" data-source-line="13" data-link-type="dependency"><path d="M299.1,380.267 C266.02,402.117 222.713,430.722 187.893,453.712" style="stroke:#181818;stroke-width:1;" fill="none" id="api-to-db"/><polygon points="183.72,456.467,193.435,454.846,187.893,453.712,189.027,448.17,183.72,456.467" fill="#181818" style="stroke:#181818;stroke-width:1;stroke-linejoin:miter;stroke-miterlimit:10;"/><text x="251.11" y="422.854" fill="#000" font-size="13" textLength="62.569">pgx / SQL</text></g><!--link worker to db--><g class="link" data-entity-1="ent0003" data-entity-2="ent0004" id="lnk9" data-source-line="14" data-link-type="dependency"><path d="M136.74,97.307 C134.63,139.177 130.99,224.717 132.13,297.187 C133.03,353.437 135.202,414.051 136.682,451.411" style="stroke:#181818;stroke-width:1;" fill="none" id="worker-to-db"/><polygon points="136.88,456.407,140.521,447.256,136.682,451.411,132.527,447.572,136.88,456.407" fill="#181818" style="stroke:#181818;stroke-width:1;stroke-linejoin:miter;stroke-miterlimit:10;"/><text x="133.13" y="293.254" fill="#000" font-size="13" textLength="97.792">Читает outbox</text></g><!--link worker to restaurant--><g class="link" data-entity-1="ent0003" data-entity-2="ent0005" id="lnk10" data-source-line="15" data-link-type="dependency"><path d="M158.31,97.177 C178.16,122.337 205.182,156.602 224.992,181.702" style="stroke:#181818;stroke-width:1;" fill="none" id="worker-to-restaurant"/><polygon points="228.09,185.627,225.654,176.084,224.992,181.702,219.374,181.04,228.09,185.627" fill="#181818" style="stroke:#181818;stroke-width:1;stroke-linejoin:miter;stroke-miterlimit:10;"/><text x="194.13" y="139.964" fill="#000" font-size="13" textLength="73.29">POST order</text></g><?plantuml-src RP2nJW9148RxVOe9hH0JOsLXGj2eaGJaI6nezhWHBi3kPNTEe0CA6rlVmPPeY0GZliBSA_WaxjqPE8t5RZBvl_td_vT26YBKZg6EzpY48_YQFK5DAvAXGcE57OGgaaQEeAj7aLQeoAEfUsAmIrBrXbX0R5y6UXog7jp9eKKXP9UqWT8j-XNUy3klUSKVoQ84qi8OVR7pXD9rIDq-AgWshphgGfUXTUwrCr16OH5inEJh2Oor6Q3fA7u1_ancl4qUU9NCapcleE2LhyfO4KYIlhG8fQQsr3FetTITmOQNoOANBjwMNylWdERfxCw6rsv-SvfZ-2rvB8FEjcUkmQ_yPpZIq49BCZPIqPyEPYS8uOf3fNAQze8JgCMMz0XD6bRiiGBHb8PK3i11TWzmAb8jPGBV8L5l0eVWweYywbxXPrvdxLR9uYTyaIaiT8iQNXkq2TnN_H-asgvTvW0ucMBx3G00?></g></svg>