<svg xmlns="http://www.w3.org/2000/svg" xmlns:xlink="http://www.w3.org/1999/xlink" version="1.1" data-diagram-type="ACTIVITY" style="width:1132px;height:945px;background:#FFFFFF;" width="1132px" height="945px" viewBox="0 0 1132 945" zoomAndPan="magnify" preserveAspectRatio="none" contentStyleType="text/css"><?plantuml 1.2026.8?><defs/><g font-family="sans-serif" lengthAdjust="spacing"><g class="title" data-source-line="1"><text x="439.229" y="32.995" fill="#000" font-size="14" textLength="252.109" font-weight="700">CJM пользователя Авито.Кухни</text></g><rect x="20" y="55.042" width="1085.567" height="20.953" fill="none" style="stroke:none;"/><ellipse cx="269.612" cy="90.995" rx="10" ry="10" fill="#222" style="stroke:#222;stroke-width:1;"/><rect x="165.64" y="120.995" width="207.945" height="33.969" fill="#F1F1F1" style="stroke:#181818;stroke-width:0.5;" rx="12.5" ry="12.5"/><text x="175.64" y="142.134" fill="#000" font-size="12" textLength="187.945">Открывает список заведений</text><rect x="117.813" y="228.933" width="303.6" height="33.969" fill="#F1F1F1" style="stroke:#181818;stroke-width:0.5;" rx="12.5" ry="12.5"/><text x="127.813" y="250.071" fill="#000" font-size="12" textLength="283.6">Выбирает заведение и просматривает меню</text><rect x="201.906" y="282.901" width="135.412" height="33.969" fill="#F1F1F1" style="stroke:#181818;stroke-width:0.5;" rx="12.5" ry="12.5"/><text x="211.906" y="304.04" fill="#000" font-size="12" textLength="115.412">Собирает корзину</text><rect x="45.022" y="516.745" width="205.766" height="33.969" fill="#F1F1F1" style="stroke:#181818;stroke-width:0.5;" rx="12.5" ry="12.5"/><text x="55.022" y="537.884" fill="#000" font-size="12" textLength="185.766">Подтверждает адрес и заказ</text><rect x="26" y="814.526" width="243.811" height="33.969" fill="#F1F1F1" style="stroke:#181818;stroke-width:0.5;" rx="12.5" ry="12.5"/><text x="36" y="835.665" fill="#000" font-size="12" textLength="223.811">Отслеживает дальнейшие статусы</text><rect x="289.811" y="448.808" width="203.018" height="47.938" fill="#F1F1F1" style="stroke:#181818;stroke-width:0.5;" rx="12.5" ry="12.5"/><text x="299.811" y="469.946" fill="#000" font-size="12" textLength="165.1">Сообщает, какие позиции</text><text x="299.811" y="483.915" fill="#000" font-size="12" textLength="183.018">недоступны или изменились</text><rect x="308.941" y="530.714" width="164.756" height="33.969" fill="#F1F1F1" style="stroke:#181818;stroke-width:0.5;" rx="12.5" ry="12.5"/><text x="318.941" y="551.853" fill="#000" font-size="12" textLength="144.756">Корректирует корзину</text><ellipse cx="269.612" cy="913.495" rx="11" ry="11" fill="none" style="stroke:#222;stroke-width:1;"/><ellipse cx="269.612" cy="913.495" rx="6" ry="6" fill="#222" style="stroke:#222;stroke-width:1;"/><line x1="20" y1="55.042" x2="20" y2="924.495" style="stroke:#000;stroke-width:1.5;"/><rect x="629.858" y="174.964" width="232.555" height="33.969" fill="#F1F1F1" style="stroke:#181818;stroke-width:0.5;" rx="12.5" ry="12.5"/><text x="639.858" y="196.103" fill="#000" font-size="12" textLength="212.555">Возвращает активные заведения</text><rect x="638.311" y="336.87" width="215.65" height="47.938" fill="#F1F1F1" style="stroke:#181818;stroke-width:0.5;" rx="12.5" ry="12.5"/><text x="648.311" y="358.009" fill="#000" font-size="12" textLength="195.65">Проверяет заведение, товары,</text><text x="648.311" y="371.978" fill="#000" font-size="12" textLength="177.926">актуальные цены и остатки</text><polygon points="690.029,404.808,802.242,404.808,814.242,416.808,802.242,428.808,690.029,428.808,678.029,416.808,690.029,404.808" fill="#F1F1F1" style="stroke:#181818;stroke-width:0.5;stroke-linejoin:miter;stroke-miterlimit:10;"/><text x="690.029" y="420.616" fill="#000" font-size="11" textLength="112.213">Корзина доступна?</text><text x="663.683" y="414.213" fill="#000" font-size="11" textLength="14.346">да</text><text x="814.242" y="414.213" fill="#000" font-size="11" textLength="20.367">нет</text><rect x="509.593" y="448.808" width="229.672" height="33.969" fill="#F1F1F1" style="stroke:#181818;stroke-width:0.5;" rx="12.5" ry="12.5"/><text x="519.593" y="469.946" fill="#000" font-size="12" textLength="209.672">Возвращает рассчитанный quote</text><rect x="502.828" y="584.683" width="243.201" height="47.938" fill="#F1F1F1" style="stroke:#181818;stroke-width:0.5;" rx="12.5" ry="12.5"/><text x="512.828" y="605.821" fill="#000" font-size="12" textLength="193.975">Транзакционно создаёт заказ,</text><text x="512.828" y="619.79" fill="#000" font-size="12" textLength="223.201">списывает остатки и пишет outbox</text><rect x="527.599" y="652.62" width="193.66" height="33.969" fill="#F1F1F1" style="stroke:#181818;stroke-width:0.5;" rx="12.5" ry="12.5"/><text x="537.599" y="673.759" fill="#000" font-size="12" textLength="173.66">Показывает статус pending</text><rect x="527.988" y="760.558" width="192.881" height="33.969" fill="#F1F1F1" style="stroke:#181818;stroke-width:0.5;" rx="12.5" ry="12.5"/><text x="537.988" y="781.696" fill="#000" font-size="12" textLength="172.881">Обновляет статус accepted</text><polygon points="746.136,858.495,758.136,870.495,746.136,882.495,734.136,870.495,746.136,858.495" fill="#F1F1F1" style="stroke:#181818;stroke-width:0.5;stroke-linejoin:miter;stroke-miterlimit:10;"/><line x1="496.828" y1="55.042" x2="496.828" y2="924.495" style="stroke:#000;stroke-width:1.5;"/><rect x="872.413" y="706.589" width="227.293" height="33.969" fill="#F1F1F1" style="stroke:#181818;stroke-width:0.5;" rx="12.5" ry="12.5"/><text x="882.413" y="727.728" fill="#000" font-size="12" textLength="207.293">Получает и подтверждает заказ</text><line x1="866.413" y1="55.042" x2="866.413" y2="924.495" style="stroke:#000;stroke-width:1.5;"/><line x1="1103.706" y1="55.042" x2="1103.706" y2="924.495" style="stroke:#000;stroke-width:1.5;"/><line x1="269.612" y1="100.995" x2="269.612" y2="120.995" style="stroke:#181818;stroke-width:1;"/><polygon points="265.612,110.995,269.612,120.995,273.612,110.995,269.612,114.995" fill="#181818" style="stroke:#181818;stroke-width:1;stroke-linejoin:miter;stroke-miterlimit:10;"/><line x1="269.612" y1="262.901" x2="269.612" y2="282.901" style="stroke:#181818;stroke-width:1;"/><polygon points="265.612,272.901,269.612,282.901,273.612,272.901,269.612,276.901" fill="#181818" style="stroke:#181818;stroke-width:1;stroke-linejoin:miter;stroke-miterlimit:10;"/><line x1="391.319" y1="496.745" x2="391.319" y2="530.714" style="stroke:#181818;stroke-width:1;"/><polygon points="387.319,520.714,391.319,530.714,395.319,520.714,391.319,524.714" fill="#181818" style="stroke:#181818;stroke-width:1;stroke-linejoin:miter;stroke-miterlimit:10;"/><line x1="624.429" y1="632.62" x2="624.429" y2="652.62" style="stroke:#181818;stroke-width:1;"/><polygon points="620.429,642.62,624.429,652.62,628.429,642.62,624.429,646.62" fill="#181818" style="stroke:#181818;stroke-width:1;stroke-linejoin:miter;stroke-miterlimit:10;"/><line x1="678.029" y1="416.808" x2="624.429" y2="416.808" style="stroke:#181818;stroke-width:1;"/><line x1="624.429" y1="416.808" x2="624.429" y2="448.808" style="stroke:#181818;stroke-width:1;"/><polygon points="620.429,438.808,624.429,448.808,628.429,438.808,624.429,442.808" fill="#181818" style="stroke:#181818;stroke-width:1;stroke-linejoin:miter;stroke-miterlimit:10;"/><line x1="746.136" y1="384.808" x2="746.136" y2="404.808" style="stroke:#181818;stroke-width:1;"/><polygon points="742.136,394.808,746.136,404.808,750.136,394.808,746.136,398.808" fill="#181818" style="stroke:#181818;stroke-width:1;stroke-linejoin:miter;stroke-miterlimit:10;"/><line x1="269.612" y1="154.964" x2="269.612" y2="159.964" style="stroke:#181818;stroke-width:1;"/><line x1="269.612" y1="159.964" x2="746.136" y2="159.964" style="stroke:#181818;stroke-width:1;"/><line x1="746.136" y1="159.964" x2="746.136" y2="174.964" style="stroke:#181818;stroke-width:1;"/><polygon points="742.136,164.964,746.136,174.964,750.136,164.964,746.136,168.964" fill="#181818" style="stroke:#181818;stroke-width:1;stroke-linejoin:miter;stroke-miterlimit:10;"/><line x1="746.136" y1="208.933" x2="746.136" y2="213.933" style="stroke:#181818;stroke-width:1;"/><line x1="746.136" y1="213.933" x2="269.612" y2="213.933" style="stroke:#181818;stroke-width:1;"/><line x1="269.612" y1="213.933" x2="269.612" y2="228.933" style="stroke:#181818;stroke-width:1;"/><polygon points="265.612,218.933,269.612,228.933,273.612,218.933,269.612,222.933" fill="#181818" style="stroke:#181818;stroke-width:1;stroke-linejoin:miter;stroke-miterlimit:10;"/><line x1="269.612" y1="316.87" x2="269.612" y2="321.87" style="stroke:#181818;stroke-width:1;"/><line x1="269.612" y1="321.87" x2="746.136" y2="321.87" style="stroke:#181818;stroke-width:1;"/><line x1="746.136" y1="321.87" x2="746.136" y2="336.87" style="stroke:#181818;stroke-width:1;"/><polygon points="742.136,326.87,746.136,336.87,750.136,326.87,746.136,330.87" fill="#181818" style="stroke:#181818;stroke-width:1;stroke-linejoin:miter;stroke-miterlimit:10;"/><line x1="624.429" y1="482.776" x2="624.429" y2="500.276" style="stroke:#181818;stroke-width:1;"/><line x1="624.429" y1="500.276" x2="147.905" y2="500.276" style="stroke:#181818;stroke-width:1;"/><line x1="147.905" y1="500.276" x2="147.905" y2="516.745" style="stroke:#181818;stroke-width:1;"/><polygon points="143.905,506.745,147.905,516.745,151.905,506.745,147.905,510.745" fill="#181818" style="stroke:#181818;stroke-width:1;stroke-linejoin:miter;stroke-miterlimit:10;"/><line x1="147.905" y1="550.714" x2="147.905" y2="568.214" style="stroke:#181818;stroke-width:1;"/><line x1="147.905" y1="568.214" x2="624.429" y2="568.214" style="stroke:#181818;stroke-width:1;"/><line x1="624.429" y1="568.214" x2="624.429" y2="584.683" style="stroke:#181818;stroke-width:1;"/><polygon points="620.429,574.683,624.429,584.683,628.429,574.683,624.429,578.683" fill="#181818" style="stroke:#181818;stroke-width:1;stroke-linejoin:miter;stroke-miterlimit:10;"/><line x1="624.429" y1="686.589" x2="624.429" y2="691.589" style="stroke:#181818;stroke-width:1;"/><line x1="624.429" y1="691.589" x2="986.06" y2="691.589" style="stroke:#181818;stroke-width:1;"/><line x1="986.06" y1="691.589" x2="986.06" y2="706.589" style="stroke:#181818;stroke-width:1;"/><polygon points="982.06,696.589,986.06,706.589,990.06,696.589,986.06,700.589" fill="#181818" style="stroke:#181818;stroke-width:1;stroke-linejoin:miter;stroke-miterlimit:10;"/><line x1="986.06" y1="740.558" x2="986.06" y2="745.558" style="stroke:#181818;stroke-width:1;"/><line x1="986.06" y1="745.558" x2="624.429" y2="745.558" style="stroke:#181818;stroke-width:1;"/><line x1="624.429" y1="745.558" x2="624.429" y2="760.558" style="stroke:#181818;stroke-width:1;"/><polygon points="620.429,750.558,624.429,760.558,628.429,750.558,624.429,754.558" fill="#181818" style="stroke:#181818;stroke-width:1;stroke-linejoin:miter;stroke-miterlimit:10;"/><line x1="624.429" y1="794.526" x2="624.429" y2="799.526" style="stroke:#181818;stroke-width:1;"/><line x1="624.429" y1="799.526" x2="147.905" y2="799.526" style="stroke:#181818;stroke-width:1;"/><line x1="147.905" y1="799.526" x2="147.905" y2="814.526" style="stroke:#181818;stroke-width:1;"/><polygon points="143.905,804.526,147.905,814.526,151.905,804.526,147.905,808.526" fill="#181818" style="stroke:#181818;stroke-width:1;stroke-linejoin:miter;stroke-miterlimit:10;"/><line x1="814.242" y1="416.808" x2="826.242" y2="416.808" style="stroke:#181818;stroke-width:1;"/><line x1="826.242" y1="416.808" x2="826.242" y2="434.808" style="stroke:#181818;stroke-width:1;"/><line x1="826.242" y1="434.808" x2="391.319" y2="434.808" style="stroke:#181818;stroke-width:1;"/><line x1="391.319" y1="434.808" x2="391.319" y2="448.808" style="stroke:#181818;stroke-width:1;"/><polygon points="387.319,438.808,391.319,448.808,395.319,438.808,391.319,442.808" fill="#181818" style="stroke:#181818;stroke-width:1;stroke-linejoin:miter;stroke-miterlimit:10;"/><line x1="147.905" y1="848.495" x2="147.905" y2="870.495" style="stroke:#181818;stroke-width:1;"/><line x1="147.905" y1="870.495" x2="734.136" y2="870.495" style="stroke:#181818;stroke-width:1;"/><polygon points="724.136,866.495,734.136,870.495,724.136,874.495,728.136,870.495" fill="#181818" style="stroke:#181818;stroke-width:1;stroke-linejoin:miter;stroke-miterlimit:10;"/><line x1="391.319" y1="564.683" x2="391.319" y2="852.495" style="stroke:#181818;stroke-width:1;"/><line x1="391.319" y1="852.495" x2="776.136" y2="852.495" style="stroke:#181818;stroke-width:1;"/><line x1="776.136" y1="852.495" x2="776.136" y2="870.495" style="stroke:#181818;stroke-width:1;"/><line x1="776.136" y1="870.495" x2="758.136" y2="870.495" style="stroke:#181818;stroke-width:1;"/><polygon points="768.136,866.495,758.136,870.495,768.136,874.495,764.136,870.495" fill="#181818" style="stroke:#181818;stroke-width:1;stroke-linejoin:miter;stroke-miterlimit:10;"/><line x1="746.136" y1="882.495" x2="746.136" y2="887.495" style="stroke:#181818;stroke-width:1;"/><line x1="746.136" y1="887.495" x2="269.612" y2="887.495" style="stroke:#181818;stroke-width:1;"/><line x1="269.612" y1="887.495" x2="269.612" y2="902.495" style="stroke:#181818;stroke-width:1;"/><polygon points="265.612,892.495,269.612,902.495,273.612,892.495,269.612,896.495" fill="#181818" style="stroke:#181818;stroke-width:1;stroke-linejoin:miter;stroke-miterlimit:10;"/><text x="192.136" y="71.75" fill="#000" font-size="18" textLength="132.557">Пользователь</text><text x="630.697" y="71.75" fill="#000" font-size="18" textLength="101.848">Kitchen API</text><text x="933.903" y="71.75" fill="#000" font-size="18" textLength="102.313">Заведение</text><?plantuml-src ZLJ1RjD04BtlL-onbI8-e3uWnAcWIlo2IHngKUBGk8933aaZA2XH0roGUcW5Ns2gkDdOjVCBit_4czcuZTjGgiXPx-xCcvatRno7yK6Wdx_OqxIaad8xeJdMIqhiCQNOJpLzmzPWMpwXCpkodwWWetflmqxNF_JVwTw-tue-X9qtkkqVz0Ab-dIn4MhILxtOFupL3ftZABC3E-PhIksnjaCaOF1VKgRXcE0cfHaUHAE5f_elmxYv7tJqirUxVK3yWEMSBkq0-5zN85Wo81lu5i1Exm7PgVTGUa25sn_O3Ih4kva0qu0h69H8zfgzyMvkwi0H3Esf1x1VmA-1PN0Q0DB0OdI_f0j6vMXWPlgFy0tDdP2qGLz3kPBj22kNvCgsdoM9iUIAFE72LMPaF1MszHQTtIP2YGQw605boGTFjtNCQMtX8jbMMczcMpP3_4v47WbSEVn2lp-Aui23tmDKCoXVpd0a5TCLHwlQECD1QeTI07EGuPaBP8qpHlaj_1RE39KRe28JAhMeQSwmzdj5fW0rL2MtDGNMYN9jXiaNkOoEujVHH-ycRO6foTUvOZw6kXjqMfW7ny3FknsyhJs7zKaLtRW9tCZ7VnWuXyeA8JXVwQQMZjzi1jquQ3sY8vXBC9FZw6fTqxDANRXOW14UW_KGTkof0BCFnHJiuJJ3yiS0L7ffQAaXSqEqbDOOwPTHWbnJeOWNcN0ZO7YzOY-NfaqUKOf8d5NaFWbu7sqSGkvL6n-cgFiN?></g></svg>